# Blender v2.79 (sub 0) OBJ File: ''
# www.blender.org
mtllib chest.mtl
o Curve_path3735
v 0.003112 -0.320047 0.240000
v -0.047864 -0.320173 0.240000
v -0.092517 -0.320244 0.240000
v -0.131214 -0.320256 0.240000
v -0.164319 -0.320205 0.240000
v -0.192196 -0.320086 0.240000
v -0.215210 -0.319896 0.240000
v -0.233727 -0.319631 0.240000
v -0.248112 -0.319287 0.240000
v -0.258728 -0.318859 0.240000
v -0.265942 -0.318344 0.240000
v -0.270117 -0.317738 0.240000
v -0.271619 -0.317037 0.240000
v -0.271807 -0.315022 0.240000
v -0.271974 -0.310150 0.240000
v -0.272119 -0.302627 0.240000
v -0.272240 -0.292655 0.240000
v -0.272338 -0.280440 0.240000
v -0.272411 -0.266184 0.240000
v -0.272458 -0.250092 0.240000
v -0.272479 -0.232367 0.240000
v -0.272473 -0.213215 0.240000
v -0.272439 -0.192837 0.240000
v -0.272376 -0.171440 0.240000
v -0.272283 -0.149225 0.240000
v -0.272273 -0.147042 0.240000
v -0.272243 -0.140872 0.240000
v -0.272198 -0.131284 0.240000
v -0.272138 -0.118848 0.240000
v -0.272068 -0.104135 0.240000
v -0.271990 -0.087712 0.240000
v -0.271906 -0.070151 0.240000
v -0.271820 -0.052020 0.240000
v -0.271733 -0.033889 0.240000
v -0.271650 -0.016327 0.240000
v -0.271571 0.000095 0.240000
v -0.271501 0.014809 0.240000
v -0.161620 0.014809 0.240000
v -0.051740 0.014809 0.240000
v -0.050234 -0.000240 0.240000
v -0.048729 -0.015289 0.240000
v 0.003953 -0.015289 0.240000
v 0.056636 -0.015289 0.240000
v 0.058141 -0.000240 0.240000
v 0.059646 0.014809 0.240000
v 0.168022 0.014809 0.240000
v 0.276398 0.014809 0.240000
v 0.276398 -0.152235 0.240000
v 0.276398 -0.319279 0.240000
v -0.160948 0.047126 0.240000
v -0.181557 0.046994 0.240000
v -0.199567 0.046919 0.240000
v -0.215137 0.046905 0.240000
v -0.228426 0.046957 0.240000
v -0.239592 0.047079 0.240000
v -0.248795 0.047276 0.240000
v -0.256193 0.047552 0.240000
v -0.261945 0.047912 0.240000
v -0.266209 0.048360 0.240000
v -0.269146 0.048902 0.240000
v -0.270913 0.049540 0.240000
v -0.271670 0.050281 0.240000
v -0.271867 0.051200 0.240000
v -0.272041 0.052833 0.240000
v -0.272192 0.055126 0.240000
v -0.272317 0.058023 0.240000
v -0.272418 0.061467 0.240000
v -0.272492 0.065402 0.240000
v -0.272540 0.069774 0.240000
v -0.272559 0.074526 0.240000
v -0.272550 0.079602 0.240000
v -0.272511 0.084947 0.240000
v -0.272443 0.090504 0.240000
v -0.272343 0.096218 0.240000
v -0.272331 0.096777 0.240000
v -0.272300 0.098357 0.240000
v -0.272251 0.100811 0.240000
v -0.272187 0.103995 0.240000
v -0.272111 0.107761 0.240000
v -0.272027 0.111965 0.240000
v -0.271937 0.116461 0.240000
v -0.271844 0.121102 0.240000
v -0.271751 0.125744 0.240000
v -0.271661 0.130240 0.240000
v -0.271577 0.134444 0.240000
v -0.271501 0.138210 0.240000
v 0.002448 0.138210 0.240000
v 0.276398 0.138210 0.240000
v 0.276398 0.093063 0.240000
v 0.276398 0.047917 0.240000
v 0.168022 0.047917 0.240000
v 0.059646 0.047917 0.240000
v 0.058141 0.065975 0.240000
v 0.056636 0.084034 0.240000
v 0.003953 0.084034 0.240000
v -0.048729 0.084034 0.240000
v -0.050234 0.065975 0.240000
v -0.051740 0.047917 0.240000
v 0.003112 -0.320047 -0.240000
v -0.047864 -0.320173 -0.240000
v -0.092517 -0.320244 -0.240000
v -0.131214 -0.320256 -0.240000
v -0.164319 -0.320205 -0.240000
v -0.192196 -0.320086 -0.240000
v -0.215210 -0.319896 -0.240000
v -0.233727 -0.319631 -0.240000
v -0.248112 -0.319287 -0.240000
v -0.258728 -0.318859 -0.240000
v -0.265942 -0.318344 -0.240000
v -0.270117 -0.317738 -0.240000
v -0.271619 -0.317037 -0.240000
v -0.271807 -0.315022 -0.240000
v -0.271974 -0.310150 -0.240000
v -0.272119 -0.302627 -0.240000
v -0.272240 -0.292655 -0.240000
v -0.272338 -0.280440 -0.240000
v -0.272411 -0.266184 -0.240000
v -0.272458 -0.250092 -0.240000
v -0.272479 -0.232367 -0.240000
v -0.272473 -0.213215 -0.240000
v -0.272439 -0.192837 -0.240000
v -0.272376 -0.171439 -0.240000
v -0.272283 -0.149225 -0.240000
v -0.272273 -0.147042 -0.240000
v -0.272243 -0.140872 -0.240000
v -0.272198 -0.131284 -0.240000
v -0.272138 -0.118848 -0.240000
v -0.272068 -0.104135 -0.240000
v -0.271990 -0.087712 -0.240000
v -0.271906 -0.070151 -0.240000
v -0.271820 -0.052020 -0.240000
v -0.271733 -0.033889 -0.240000
v -0.271650 -0.016327 -0.240000
v -0.271571 0.000095 -0.240000
v -0.271501 0.014809 -0.240000
v -0.161620 0.014809 -0.240000
v -0.051740 0.014809 -0.240000
v -0.050234 -0.000240 -0.240000
v -0.048729 -0.015289 -0.240000
v 0.003953 -0.015289 -0.240000
v 0.056636 -0.015289 -0.240000
v 0.058141 -0.000240 -0.240000
v 0.059646 0.014809 -0.240000
v 0.168022 0.014809 -0.240000
v 0.276398 0.014809 -0.240000
v 0.276398 -0.152235 -0.240000
v 0.276398 -0.319279 -0.240000
v -0.160948 0.047126 -0.240000
v -0.181557 0.046994 -0.240000
v -0.199567 0.046919 -0.240000
v -0.215137 0.046905 -0.240000
v -0.228426 0.046957 -0.240000
v -0.239592 0.047079 -0.240000
v -0.248795 0.047276 -0.240000
v -0.256193 0.047552 -0.240000
v -0.261945 0.047912 -0.240000
v -0.266209 0.048360 -0.240000
v -0.269146 0.048902 -0.240000
v -0.270913 0.049540 -0.240000
v -0.271670 0.050281 -0.240000
v -0.271867 0.051200 -0.240000
v -0.272041 0.052833 -0.240000
v -0.272192 0.055126 -0.240000
v -0.272317 0.058023 -0.240000
v -0.272418 0.061467 -0.240000
v -0.272492 0.065402 -0.240000
v -0.272540 0.069774 -0.240000
v -0.272559 0.074526 -0.240000
v -0.272550 0.079602 -0.240000
v -0.272511 0.084947 -0.240000
v -0.272443 0.090504 -0.240000
v -0.272343 0.096218 -0.240000
v -0.272331 0.096777 -0.240000
v -0.272300 0.098357 -0.240000
v -0.272251 0.100811 -0.240000
v -0.272187 0.103995 -0.240000
v -0.272111 0.107761 -0.240000
v -0.272027 0.111965 -0.240000
v -0.271937 0.116461 -0.240000
v -0.271844 0.121102 -0.240000
v -0.271751 0.125744 -0.240000
v -0.271661 0.130240 -0.240000
v -0.271577 0.134444 -0.240000
v -0.271501 0.138210 -0.240000
v 0.002448 0.138210 -0.240000
v 0.276398 0.138210 -0.240000
v 0.276398 0.093063 -0.240000
v 0.276398 0.047917 -0.240000
v 0.168022 0.047917 -0.240000
v 0.059646 0.047917 -0.240000
v 0.058141 0.065975 -0.240000
v 0.056636 0.084034 -0.240000
v 0.003953 0.084034 -0.240000
v -0.048729 0.084034 -0.240000
v -0.050234 0.065975 -0.240000
v -0.051740 0.047917 -0.240000
v 0.003112 -0.320047 -0.240000
v 0.003112 -0.320047 0.240000
v -0.047864 -0.320173 -0.240000
v -0.047864 -0.320173 0.240000
v -0.092517 -0.320244 -0.240000
v -0.092517 -0.320244 0.240000
v -0.131214 -0.320256 -0.240000
v -0.131214 -0.320256 0.240000
v -0.164319 -0.320205 -0.240000
v -0.164319 -0.320205 0.240000
v -0.192196 -0.320086 -0.240000
v -0.192196 -0.320086 0.240000
v -0.215210 -0.319896 -0.240000
v -0.215210 -0.319896 0.240000
v -0.233727 -0.319631 -0.240000
v -0.233727 -0.319631 0.240000
v -0.248112 -0.319287 -0.240000
v -0.248112 -0.319287 0.240000
v -0.258728 -0.318859 -0.240000
v -0.258728 -0.318859 0.240000
v -0.265942 -0.318344 -0.240000
v -0.265942 -0.318344 0.240000
v -0.270117 -0.317738 -0.240000
v -0.270117 -0.317738 0.240000
v -0.271619 -0.317037 -0.240000
v -0.271619 -0.317037 0.240000
v -0.271807 -0.315022 -0.240000
v -0.271807 -0.315022 0.240000
v -0.271974 -0.310150 -0.240000
v -0.271974 -0.310150 0.240000
v -0.272119 -0.302627 -0.240000
v -0.272119 -0.302627 0.240000
v -0.272240 -0.292655 -0.240000
v -0.272240 -0.292655 0.240000
v -0.272338 -0.280440 -0.240000
v -0.272338 -0.280440 0.240000
v -0.272411 -0.266184 -0.240000
v -0.272411 -0.266184 0.240000
v -0.272458 -0.250092 -0.240000
v -0.272458 -0.250092 0.240000
v -0.272479 -0.232367 -0.240000
v -0.272479 -0.232367 0.240000
v -0.272473 -0.213215 -0.240000
v -0.272473 -0.213215 0.240000
v -0.272439 -0.192837 -0.240000
v -0.272439 -0.192837 0.240000
v -0.272376 -0.171439 -0.240000
v -0.272376 -0.171440 0.240000
v -0.272283 -0.149225 -0.240000
v -0.272283 -0.149225 0.240000
v -0.272273 -0.147042 -0.240000
v -0.272273 -0.147042 0.240000
v -0.272243 -0.140872 -0.240000
v -0.272243 -0.140872 0.240000
v -0.272198 -0.131284 -0.240000
v -0.272198 -0.131284 0.240000
v -0.272138 -0.118848 -0.240000
v -0.272138 -0.118848 0.240000
v -0.272068 -0.104135 -0.240000
v -0.272068 -0.104135 0.240000
v -0.271990 -0.087712 -0.240000
v -0.271990 -0.087712 0.240000
v -0.271906 -0.070151 -0.240000
v -0.271906 -0.070151 0.240000
v -0.271820 -0.052020 -0.240000
v -0.271820 -0.052020 0.240000
v -0.271733 -0.033889 -0.240000
v -0.271733 -0.033889 0.240000
v -0.271650 -0.016327 -0.240000
v -0.271650 -0.016327 0.240000
v -0.271571 0.000095 -0.240000
v -0.271571 0.000095 0.240000
v -0.271501 0.014809 -0.240000
v -0.271501 0.014809 0.240000
v -0.161620 0.014809 -0.240000
v -0.161620 0.014809 0.240000
v -0.051740 0.014809 -0.240000
v -0.051740 0.014809 0.240000
v -0.050234 -0.000240 -0.240000
v -0.050234 -0.000240 0.240000
v -0.048729 -0.015289 -0.240000
v -0.048729 -0.015289 0.240000
v 0.003953 -0.015289 -0.240000
v 0.003953 -0.015289 0.240000
v 0.056636 -0.015289 -0.240000
v 0.056636 -0.015289 0.240000
v 0.058141 -0.000240 -0.240000
v 0.058141 -0.000240 0.240000
v 0.059646 0.014809 -0.240000
v 0.059646 0.014809 0.240000
v 0.168022 0.014809 -0.240000
v 0.168022 0.014809 0.240000
v 0.276398 0.014809 -0.240000
v 0.276398 0.014809 0.240000
v 0.276398 -0.152235 -0.240000
v 0.276398 -0.152235 0.240000
v 0.276398 -0.319279 -0.240000
v 0.276398 -0.319279 0.240000
v -0.160948 0.047126 -0.240000
v -0.160948 0.047126 0.240000
v -0.181557 0.046994 -0.240000
v -0.181557 0.046994 0.240000
v -0.199567 0.046919 -0.240000
v -0.199567 0.046919 0.240000
v -0.215137 0.046905 -0.240000
v -0.215137 0.046905 0.240000
v -0.228426 0.046957 -0.240000
v -0.228426 0.046957 0.240000
v -0.239592 0.047079 -0.240000
v -0.239592 0.047079 0.240000
v -0.248795 0.047276 -0.240000
v -0.248795 0.047276 0.240000
v -0.256193 0.047552 -0.240000
v -0.256193 0.047552 0.240000
v -0.261945 0.047912 -0.240000
v -0.261945 0.047912 0.240000
v -0.266209 0.048360 -0.240000
v -0.266209 0.048360 0.240000
v -0.269146 0.048902 -0.240000
v -0.269146 0.048902 0.240000
v -0.270913 0.049540 -0.240000
v -0.270913 0.049540 0.240000
v -0.271670 0.050281 -0.240000
v -0.271670 0.050281 0.240000
v -0.271867 0.051200 -0.240000
v -0.271867 0.051200 0.240000
v -0.272041 0.052833 -0.240000
v -0.272041 0.052833 0.240000
v -0.272192 0.055126 -0.240000
v -0.272192 0.055126 0.240000
v -0.272317 0.058023 -0.240000
v -0.272317 0.058023 0.240000
v -0.272418 0.061467 -0.240000
v -0.272418 0.061467 0.240000
v -0.272492 0.065402 -0.240000
v -0.272492 0.065402 0.240000
v -0.272540 0.069774 -0.240000
v -0.272540 0.069774 0.240000
v -0.272559 0.074526 -0.240000
v -0.272559 0.074526 0.240000
v -0.272550 0.079602 -0.240000
v -0.272550 0.079602 0.240000
v -0.272511 0.084947 -0.240000
v -0.272511 0.084947 0.240000
v -0.272443 0.090504 -0.240000
v -0.272443 0.090504 0.240000
v -0.272343 0.096218 -0.240000
v -0.272343 0.096218 0.240000
v -0.272331 0.096777 -0.240000
v -0.272331 0.096777 0.240000
v -0.272300 0.098357 -0.240000
v -0.272300 0.098357 0.240000
v -0.272251 0.100811 -0.240000
v -0.272251 0.100811 0.240000
v -0.272187 0.103995 -0.240000
v -0.272187 0.103995 0.240000
v -0.272111 0.107761 -0.240000
v -0.272111 0.107761 0.240000
v -0.272027 0.111965 -0.240000
v -0.272027 0.111965 0.240000
v -0.271937 0.116461 -0.240000
v -0.271937 0.116461 0.240000
v -0.271844 0.121102 -0.240000
v -0.271844 0.121102 0.240000
v -0.271751 0.125744 -0.240000
v -0.271751 0.125744 0.240000
v -0.271661 0.130240 -0.240000
v -0.271661 0.130240 0.240000
v -0.271577 0.134444 -0.240000
v -0.271577 0.134444 0.240000
v -0.271501 0.138210 -0.240000
v -0.271501 0.138210 0.240000
v 0.002448 0.138210 -0.240000
v 0.002448 0.138210 0.240000
v 0.276398 0.138210 -0.240000
v 0.276398 0.138210 0.240000
v 0.276398 0.093063 -0.240000
v 0.276398 0.093063 0.240000
v 0.276398 0.047917 -0.240000
v 0.276398 0.047917 0.240000
v 0.168022 0.047917 -0.240000
v 0.168022 0.047917 0.240000
v 0.059646 0.047917 -0.240000
v 0.059646 0.047917 0.240000
v 0.058141 0.065975 -0.240000
v 0.058141 0.065975 0.240000
v 0.056636 0.084034 -0.240000
v 0.056636 0.084034 0.240000
v 0.003953 0.084034 -0.240000
v 0.003953 0.084034 0.240000
v -0.048729 0.084034 -0.240000
v -0.048729 0.084034 0.240000
v -0.050234 0.065975 -0.240000
v -0.050234 0.065975 0.240000
v -0.051740 0.047917 -0.240000
v -0.051740 0.047917 0.240000
vn 0.0000 0.0000 1.0000
vn 0.0000 0.0000 -1.0000
vn 0.0026 -1.0000 0.0000
vn 0.0020 -1.0000 0.0000
vn 0.0009 -1.0000 0.0000
vn -0.0006 -1.0000 0.0000
vn -0.0029 -1.0000 0.0000
vn -0.0062 -1.0000 0.0000
vn -0.0113 -0.9999 0.0000
vn -0.0191 -0.9998 0.0000
vn -0.0321 -0.9995 0.0000
vn -0.0557 -0.9984 0.0000
vn -0.1075 -0.9942 0.0000
vn -0.2864 -0.9581 0.0000
vn -0.8176 -0.5758 0.0000
vn -0.9980 -0.0637 0.0000
vn -0.9996 -0.0267 0.0000
vn -0.9998 -0.0157 0.0000
vn -0.9999 -0.0101 0.0000
vn -1.0000 -0.0065 0.0000
vn -1.0000 -0.0040 0.0000
vn -1.0000 -0.0020 0.0000
vn -1.0000 -0.0004 0.0000
vn -1.0000 0.0010 0.0000
vn -1.0000 0.0023 0.0000
vn -1.0000 0.0035 0.0000
vn -1.0000 0.0045 0.0000
vn -1.0000 0.0048 0.0000
vn -0.7054 0.7088 0.0000
vn 0.0000 1.0000 0.0000
vn 0.6710 0.7414 0.0000
vn 0.9950 0.0995 0.0000
vn -0.6710 0.7414 0.0000
vn -0.9950 0.0995 0.0000
vn 0.7071 0.7071 0.0000
vn 1.0000 0.0000 0.0000
vn 0.7081 -0.7061 0.0000
vn 0.0068 -1.0000 0.0000
vn 0.0053 -1.0000 0.0000
vn 0.0025 -1.0000 0.0000
vn -0.0015 -1.0000 0.0000
vn -0.0074 -1.0000 0.0000
vn -0.0161 -0.9998 0.0000
vn -0.0293 -0.9995 0.0000
vn -0.0499 -0.9987 0.0000
vn -0.0835 -0.9965 0.0000
vn -0.1430 -0.9897 0.0000
vn -0.2615 -0.9652 0.0000
vn -0.5318 -0.8468 0.0000
vn -0.8758 -0.4826 0.0000
vn -0.9874 -0.1580 0.0000
vn -0.9963 -0.0857 0.0000
vn -0.9985 -0.0544 0.0000
vn -0.9993 -0.0363 0.0000
vn -0.9997 -0.0240 0.0000
vn -0.9999 -0.0148 0.0000
vn -1.0000 -0.0074 0.0000
vn -1.0000 -0.0011 0.0000
vn -0.9999 0.0098 0.0000
vn -0.9999 0.0149 0.0000
vn -0.9998 0.0187 0.0000
vn -0.9998 0.0200 0.0000
vn -0.7000 0.7141 0.0000
vn 0.7071 -0.7071 0.0000
vn 0.0000 -1.0000 0.0000
vn -0.6771 -0.7359 0.0000
vn -0.9965 -0.0830 0.0000
vn 0.6771 -0.7359 0.0000
vn 0.9965 -0.0830 0.0000
vn 0.6797 -0.7334 0.0000
usemtl SVGMat.003
s off
f 85//1 87//1 86//1
f 85//1 88//1 87//1
f 85//1 89//1 88//1
f 84//1 89//1 85//1
f 83//1 89//1 84//1
f 82//1 89//1 83//1
f 81//1 89//1 82//1
f 80//1 89//1 81//1
f 79//1 89//1 80//1
f 78//1 89//1 79//1
f 77//1 89//1 78//1
f 76//1 89//1 77//1
f 75//1 89//1 76//1
f 74//1 89//1 75//1
f 73//1 89//1 74//1
f 73//1 94//1 89//1
f 94//1 90//1 89//1
f 72//1 94//1 73//1
f 71//1 96//1 72//1
f 96//1 94//1 72//1
f 71//1 97//1 96//1
f 95//1 94//1 96//1
f 93//1 90//1 94//1
f 70//1 97//1 71//1
f 69//1 97//1 70//1
f 68//1 97//1 69//1
f 68//1 98//1 97//1
f 92//1 90//1 93//1
f 67//1 98//1 68//1
f 66//1 98//1 67//1
f 65//1 98//1 66//1
f 64//1 98//1 65//1
f 63//1 98//1 64//1
f 62//1 98//1 63//1
f 61//1 98//1 62//1
f 60//1 98//1 61//1
f 59//1 98//1 60//1
f 58//1 98//1 59//1
f 58//1 50//1 98//1
f 91//2 90//2 92//2
f 57//1 50//1 58//1
f 56//1 50//1 57//1
f 55//1 50//1 56//1
f 55//1 51//1 50//1
f 54//1 51//1 55//1
f 54//1 52//1 51//1
f 53//1 52//1 54//1
f 36//1 38//1 37//1
f 36//1 39//1 38//1
f 36//1 40//1 39//1
f 44//1 46//1 45//1
f 44//1 47//1 46//1
f 44//1 48//1 47//1
f 35//1 40//1 36//1
f 35//1 41//1 40//1
f 43//1 48//1 44//1
f 35//1 42//1 41//1
f 35//1 43//1 42//1
f 35//1 48//1 43//1
f 34//1 48//1 35//1
f 33//1 48//1 34//1
f 32//1 48//1 33//1
f 31//1 48//1 32//1
f 30//1 48//1 31//1
f 29//1 48//1 30//1
f 28//1 48//1 29//1
f 27//1 48//1 28//1
f 26//1 48//1 27//1
f 25//1 48//1 26//1
f 24//1 48//1 25//1
f 24//1 49//1 48//1
f 23//1 49//1 24//1
f 22//1 49//1 23//1
f 21//1 49//1 22//1
f 20//1 49//1 21//1
f 19//1 49//1 20//1
f 18//1 49//1 19//1
f 17//1 49//1 18//1
f 16//1 49//1 17//1
f 15//1 49//1 16//1
f 14//1 49//1 15//1
f 13//1 49//1 14//1
f 12//1 49//1 13//1
f 11//1 49//1 12//1
f 10//1 49//1 11//1
f 9//1 49//1 10//1
f 9//1 1//1 49//1
f 8//1 1//1 9//1
f 7//1 1//1 8//1
f 6//1 1//1 7//1
f 6//1 2//1 1//1
f 5//1 2//1 6//1
f 5//1 3//1 2//1
f 4//1 3//1 5//1
f 185//2 183//2 184//2
f 186//2 183//2 185//2
f 187//2 183//2 186//2
f 187//2 182//2 183//2
f 187//2 181//2 182//2
f 187//2 180//2 181//2
f 187//2 179//2 180//2
f 187//2 178//2 179//2
f 187//2 177//2 178//2
f 187//2 176//2 177//2
f 187//2 175//2 176//2
f 187//2 174//2 175//2
f 187//2 173//2 174//2
f 187//2 172//2 173//2
f 187//2 171//2 172//2
f 192//2 171//2 187//2
f 188//2 192//2 187//2
f 192//2 170//2 171//2
f 194//2 169//2 170//2
f 192//2 194//2 170//2
f 195//2 169//2 194//2
f 192//1 193//1 194//1
f 188//2 191//2 192//2
f 195//2 168//2 169//2
f 195//2 167//2 168//2
f 195//2 166//2 167//2
f 196//2 166//2 195//2
f 188//2 190//2 191//2
f 196//2 165//2 166//2
f 196//2 164//2 165//2
f 196//2 163//2 164//2
f 196//2 162//2 163//2
f 196//2 161//2 162//2
f 196//2 160//2 161//2
f 196//2 159//2 160//2
f 196//2 158//2 159//2
f 196//2 157//2 158//2
f 196//2 156//2 157//2
f 148//2 156//2 196//2
f 188//2 189//2 190//2
f 148//2 155//2 156//2
f 148//2 154//2 155//2
f 148//2 153//2 154//2
f 149//2 153//2 148//2
f 149//2 152//2 153//2
f 150//2 152//2 149//2
f 150//2 151//2 152//2
f 136//2 134//2 135//2
f 137//2 134//2 136//2
f 138//2 134//2 137//2
f 144//2 142//2 143//2
f 145//2 142//2 144//2
f 146//2 142//2 145//2
f 138//2 133//2 134//2
f 139//2 133//2 138//2
f 146//2 141//2 142//2
f 140//2 133//2 139//2
f 141//2 133//2 140//2
f 146//2 133//2 141//2
f 146//2 132//2 133//2
f 146//2 131//2 132//2
f 146//2 130//2 131//2
f 146//2 129//2 130//2
f 146//2 128//2 129//2
f 146//2 127//2 128//2
f 146//2 126//2 127//2
f 146//2 125//2 126//2
f 146//2 124//2 125//2
f 146//2 123//2 124//2
f 146//2 122//2 123//2
f 147//2 122//2 146//2
f 147//2 121//2 122//2
f 147//2 120//2 121//2
f 147//2 119//2 120//2
f 147//2 118//2 119//2
f 147//2 117//2 118//2
f 147//2 116//2 117//2
f 147//2 115//2 116//2
f 147//2 114//2 115//2
f 147//2 113//2 114//2
f 147//2 112//2 113//2
f 147//2 111//2 112//2
f 147//2 110//2 111//2
f 147//2 109//2 110//2
f 147//2 108//2 109//2
f 147//2 107//2 108//2
f 99//2 107//2 147//2
f 99//2 106//2 107//2
f 99//2 105//2 106//2
f 99//2 104//2 105//2
f 100//2 104//2 99//2
f 100//2 103//2 104//2
f 101//2 103//2 100//2
f 101//2 102//2 103//2
s 1
f 198//3 200//4 199//4 197//3
f 200//4 202//5 201//5 199//4
f 202//5 204//6 203//6 201//5
f 204//6 206//7 205//7 203//6
f 206//7 208//8 207//8 205//7
f 208//8 210//9 209//9 207//8
f 210//9 212//10 211//10 209//9
f 212//10 214//11 213//11 211//10
f 214//11 216//12 215//12 213//11
f 216//12 218//13 217//13 215//12
f 218//13 220//14 219//14 217//13
f 220//14 222//15 221//15 219//14
f 222//15 224//16 223//16 221//15
f 224//16 226//17 225//17 223//16
f 226//17 228//18 227//18 225//17
f 228//18 230//19 229//19 227//18
f 230//19 232//20 231//20 229//19
f 232//20 234//21 233//21 231//20
f 234//21 236//22 235//22 233//21
f 236//22 238//23 237//23 235//22
f 238//23 240//24 239//24 237//23
f 240//24 242//25 241//25 239//24
f 242//25 244//26 243//26 241//25
f 244//26 246//27 245//27 243//26
f 246//27 248//28 247//28 245//27
f 248//28 250//28 249//28 247//28
f 250//28 252//28 251//28 249//28
f 252//28 254//28 253//28 251//28
f 254//28 256//28 255//28 253//28
f 256//28 258//28 257//28 255//28
f 258//28 260//28 259//28 257//28
f 260//28 262//28 261//28 259//28
f 262//28 264//28 263//28 261//28
f 264//28 266//28 265//28 263//28
f 266//28 268//28 267//28 265//28
f 268//28 270//29 269//29 267//28
f 270//29 272//30 271//30 269//29
f 272//30 274//31 273//31 271//30
f 274//31 276//32 275//32 273//31
f 276//32 278//31 277//31 275//32
f 278//31 280//30 279//30 277//31
f 280//30 282//33 281//33 279//30
f 282//33 284//34 283//34 281//33
f 284//34 286//33 285//33 283//34
f 286//33 288//30 287//30 285//33
f 288//30 290//35 289//35 287//30
f 290//35 292//36 291//36 289//35
f 292//36 294//37 293//37 291//36
f 294//37 198//3 197//3 293//37
f 296//38 298//39 297//39 295//38
f 298//39 300//40 299//40 297//39
f 300//40 302//41 301//41 299//40
f 302//41 304//42 303//42 301//41
f 304//42 306//43 305//43 303//42
f 306//43 308//44 307//44 305//43
f 308//44 310//45 309//45 307//44
f 310//45 312//46 311//46 309//45
f 312//46 314//47 313//47 311//46
f 314//47 316//48 315//48 313//47
f 316//48 318//49 317//49 315//48
f 318//49 320//50 319//50 317//49
f 320//50 322//51 321//51 319//50
f 322//51 324//52 323//52 321//51
f 324//52 326//53 325//53 323//52
f 326//53 328//54 327//54 325//53
f 328//54 330//55 329//55 327//54
f 330//55 332//56 331//56 329//55
f 332//56 334//57 333//57 331//56
f 334//57 336//58 335//58 333//57
f 336//58 338//27 337//27 335//58
f 338//27 340//59 339//59 337//27
f 340//59 342//60 341//60 339//59
f 342//60 344//61 343//61 341//60
f 344//61 346//62 345//62 343//61
f 346//62 348//62 347//62 345//62
f 348//62 350//62 349//62 347//62
f 350//62 352//62 351//62 349//62
f 352//62 354//62 353//62 351//62
f 354//62 356//62 355//62 353//62
f 356//62 358//62 357//62 355//62
f 358//62 360//62 359//62 357//62
f 360//62 362//62 361//62 359//62
f 362//62 364//62 363//62 361//62
f 364//62 366//62 365//62 363//62
f 366//62 368//63 367//63 365//62
f 368//63 370//30 369//30 367//63
f 370//30 372//35 371//35 369//30
f 372//35 374//36 373//36 371//35
f 374//36 376//64 375//64 373//36
f 376//64 378//65 377//65 375//64
f 378//65 380//66 379//66 377//65
f 380//66 382//67 381//67 379//66
f 382//67 384//66 383//66 381//67
f 384//66 386//65 385//65 383//66
f 386//65 388//68 387//68 385//65
f 388//68 390//69 389//69 387//68
f 390//69 392//70 391//70 389//69
f 392//70 296//38 295//38 391//70
