# MagicaVoxel @ Ephtracy

# group
g carrot

# material
mtllib carrot.mtl
usemtl palette

# normals
vn -1 0 0
vn 1 0 0
vn 0 0 1
vn 0 0 -1
vn 0 -1 0
vn 0 1 0

# texcoords
vt 0.0917969 0.5
vt 0.748047 0.5

# verts
v -7 0 2
v -7 0 -1
v -7 1 2
v -7 1 -1
v -4 0 3
v -4 0 2
v -4 0 1
v -4 0 -0
v -4 1 3
v -4 1 2
v -4 1 1
v -4 1 -0
v -4 2 2
v -4 2 1
v -3 0 4
v -3 0 3
v -3 0 -0
v -3 0 -1
v -3 1 3
v -3 1 2
v -3 1 1
v -3 1 -0
v -3 2 4
v -3 2 3
v -3 2 2
v -3 2 1
v -3 2 -0
v -3 2 -1
v -3 3 3
v -3 3 -0
v -6 0 1
v -6 0 -1
v -6 1 1
v -6 1 -1
v 0 0 -0
v 0 0 -1
v 0 1 4
v 0 1 3
v 0 2 4
v 0 2 3
v 0 2 2
v 0 2 1
v 0 2 -0
v 0 2 -1
v 0 3 3
v 0 3 2
v 0 3 1
v 0 3 -0
v 1 0 4
v 1 0 3
v 1 1 4
v 1 1 3
v 2 1 3
v 2 1 2
v 2 2 3
v 2 2 2
v 3 1 1
v 3 1 -0
v 3 2 2
v 3 2 1
v 3 2 -0
v 3 3 2
v 3 3 1
v 5 0 3
v 5 0 2
v 5 0 1
v 5 0 -0
v 5 1 3
v 5 1 2
v 5 1 1
v 5 1 -0
v 5 2 2
v 5 2 1
v 6 0 2
v 6 0 1
v 6 1 2
v 6 1 1
v -3 0 4
v -3 2 4
v 0 1 4
v 0 2 4
v 1 0 4
v 1 1 4
v -4 0 3
v -4 1 3
v -3 0 3
v -3 1 3
v -3 2 3
v -3 3 3
v 0 1 3
v 0 2 3
v 0 3 3
v 1 0 3
v 1 1 3
v 2 1 3
v 2 2 3
v 5 0 3
v 5 1 3
v -7 0 2
v -7 1 2
v -4 0 2
v -4 1 2
v -4 2 2
v -3 1 2
v -3 2 2
v 0 2 2
v 0 3 2
v 2 1 2
v 2 2 2
v 3 2 2
v 3 3 2
v 5 0 2
v 5 1 2
v 5 2 2
v 6 0 2
v 6 1 2
v -6 0 1
v -6 1 1
v -4 0 1
v -4 1 1
v -4 2 1
v -3 1 1
v -3 2 1
v 0 2 1
v 0 3 1
v 3 1 1
v 3 2 1
v 3 3 1
v 5 0 1
v 5 1 1
v 5 2 1
v 6 0 1
v 6 1 1
v -4 0 -0
v -4 1 -0
v -3 0 -0
v -3 1 -0
v -3 2 -0
v -3 3 -0
v 0 0 -0
v 0 2 -0
v 0 3 -0
v 3 1 -0
v 3 2 -0
v 5 0 -0
v 5 1 -0
v -7 0 -1
v -7 1 -1
v -6 0 -1
v -6 1 -1
v -3 0 -1
v -3 2 -1
v 0 0 -1
v 0 2 -1
v -3 0 4
v 1 0 4
v -4 0 3
v -3 0 3
v 1 0 3
v 5 0 3
v -7 0 2
v -4 0 2
v 5 0 2
v 6 0 2
v -6 0 1
v -4 0 1
v 5 0 1
v 6 0 1
v -4 0 -0
v -3 0 -0
v 0 0 -0
v 5 0 -0
v -7 0 -1
v -6 0 -1
v -3 0 -1
v 0 0 -1
v 0 1 4
v 1 1 4
v -4 1 3
v -3 1 3
v 0 1 3
v 1 1 3
v 2 1 3
v 5 1 3
v -7 1 2
v -4 1 2
v -3 1 2
v 2 1 2
v 5 1 2
v 6 1 2
v -6 1 1
v -4 1 1
v -3 1 1
v 3 1 1
v 5 1 1
v 6 1 1
v -4 1 -0
v -3 1 -0
v 3 1 -0
v 5 1 -0
v -7 1 -1
v -6 1 -1
v -3 2 4
v 0 2 4
v -3 2 3
v 0 2 3
v 2 2 3
v -4 2 2
v -3 2 2
v 0 2 2
v 2 2 2
v 3 2 2
v 5 2 2
v -4 2 1
v -3 2 1
v 0 2 1
v 3 2 1
v 5 2 1
v -3 2 -0
v 0 2 -0
v 3 2 -0
v -3 2 -1
v 0 2 -1
v -3 3 3
v 0 3 3
v 0 3 2
v 3 3 2
v 0 3 1
v 3 3 1
v -3 3 -0
v 0 3 -0

# faces
f 3/2/1 2/2/1 1/2/1
f 4/2/1 2/2/1 3/2/1
f 9/2/1 6/2/1 5/2/1
f 10/2/1 6/2/1 9/2/1
f 11/2/1 8/2/1 7/2/1
f 12/2/1 8/2/1 11/2/1
f 13/2/1 11/2/1 10/2/1
f 14/2/1 11/2/1 13/2/1
f 19/1/1 16/1/1 15/1/1
f 22/1/1 18/1/1 17/1/1
f 23/1/1 20/1/1 19/1/1
f 23/1/1 19/1/1 15/1/1
f 24/1/1 20/1/1 23/1/1
f 25/1/1 20/1/1 24/1/1
f 26/1/1 22/1/1 21/1/1
f 27/1/1 18/1/1 22/1/1
f 27/1/1 22/1/1 26/1/1
f 28/1/1 18/1/1 27/1/1
f 29/1/1 25/1/1 24/1/1
f 29/1/1 26/1/1 25/1/1
f 29/1/1 27/1/1 26/1/1
f 30/1/1 27/1/1 29/1/1
f 31/2/2 32/2/2 33/2/2
f 33/2/2 32/2/2 34/2/2
f 37/1/2 38/1/2 39/1/2
f 39/1/2 38/1/2 40/1/2
f 35/1/2 36/1/2 43/1/2
f 43/1/2 36/1/2 44/1/2
f 40/1/2 41/1/2 45/1/2
f 45/1/2 41/1/2 46/1/2
f 42/1/2 43/1/2 47/1/2
f 47/1/2 43/1/2 48/1/2
f 49/1/2 50/1/2 51/1/2
f 51/1/2 50/1/2 52/1/2
f 53/1/2 54/1/2 55/1/2
f 55/1/2 54/1/2 56/1/2
f 57/1/2 58/1/2 60/1/2
f 60/1/2 58/1/2 61/1/2
f 59/1/2 60/1/2 62/1/2
f 62/1/2 60/1/2 63/1/2
f 64/1/2 65/1/2 68/1/2
f 68/1/2 65/1/2 69/1/2
f 66/1/2 67/1/2 70/1/2
f 70/1/2 67/1/2 71/1/2
f 69/1/2 70/1/2 72/1/2
f 72/1/2 70/1/2 73/1/2
f 74/1/2 75/1/2 76/1/2
f 76/1/2 75/1/2 77/1/2
f 80/1/3 79/1/3 78/1/3
f 81/1/3 79/1/3 80/1/3
f 82/1/3 80/1/3 78/1/3
f 83/1/3 80/1/3 82/1/3
f 86/2/3 85/2/3 84/2/3
f 87/2/3 85/2/3 86/2/3
f 91/1/3 89/1/3 88/1/3
f 92/1/3 89/1/3 91/1/3
f 94/1/3 91/1/3 90/1/3
f 95/1/3 91/1/3 94/1/3
f 95/1/3 94/1/3 93/1/3
f 96/1/3 91/1/3 95/1/3
f 97/1/3 95/1/3 93/1/3
f 98/1/3 95/1/3 97/1/3
f 101/2/3 100/2/3 99/2/3
f 102/2/3 100/2/3 101/2/3
f 104/2/3 103/2/3 102/2/3
f 105/2/3 103/2/3 104/2/3
f 109/1/3 107/1/3 106/1/3
f 110/1/3 107/1/3 109/1/3
f 110/1/3 109/1/3 108/1/3
f 111/1/3 107/1/3 110/1/3
f 113/1/3 110/1/3 108/1/3
f 114/1/3 110/1/3 113/1/3
f 115/1/3 113/1/3 112/1/3
f 116/1/3 113/1/3 115/1/3
f 117/2/4 118/2/4 119/2/4
f 119/2/4 118/2/4 120/2/4
f 120/2/4 121/2/4 122/2/4
f 122/2/4 121/2/4 123/2/4
f 124/1/4 125/1/4 127/1/4
f 127/1/4 125/1/4 128/1/4
f 126/1/4 127/1/4 130/1/4
f 130/1/4 127/1/4 131/1/4
f 129/1/4 130/1/4 132/1/4
f 132/1/4 130/1/4 133/1/4
f 134/2/4 135/2/4 136/2/4
f 136/2/4 135/2/4 137/2/4
f 138/1/4 139/1/4 141/1/4
f 141/1/4 139/1/4 142/1/4
f 140/1/4 141/1/4 143/1/4
f 143/1/4 141/1/4 144/1/4
f 140/1/4 143/1/4 145/1/4
f 145/1/4 143/1/4 146/1/4
f 147/2/4 148/2/4 149/2/4
f 149/2/4 148/2/4 150/2/4
f 151/1/4 152/1/4 153/1/4
f 153/1/4 152/1/4 154/1/4
f 158/1/5 156/1/5 155/1/5
f 159/1/5 156/1/5 158/1/5
f 162/2/5 158/2/5 157/2/5
f 163/1/5 160/1/5 159/1/5
f 163/1/5 159/1/5 158/1/5
f 165/2/5 162/2/5 161/2/5
f 166/2/5 158/2/5 162/2/5
f 166/2/5 162/2/5 165/2/5
f 167/1/5 164/1/5 163/1/5
f 167/1/5 163/1/5 158/1/5
f 168/1/5 164/1/5 167/1/5
f 169/2/5 158/2/5 166/2/5
f 170/1/5 167/1/5 158/1/5
f 170/2/5 158/2/5 169/2/5
f 171/1/5 167/1/5 170/1/5
f 172/1/5 167/1/5 171/1/5
f 173/2/5 165/2/5 161/2/5
f 174/2/5 165/2/5 173/2/5
f 175/1/5 171/1/5 170/1/5
f 176/1/5 171/1/5 175/1/5
f 177/1/6 178/1/6 181/1/6
f 181/1/6 178/1/6 182/1/6
f 179/2/6 180/2/6 186/2/6
f 186/2/6 180/2/6 187/2/6
f 183/1/6 184/1/6 188/1/6
f 188/1/6 184/1/6 189/1/6
f 185/2/6 186/2/6 191/2/6
f 191/2/6 186/2/6 192/2/6
f 189/1/6 190/1/6 195/1/6
f 195/1/6 190/1/6 196/1/6
f 192/2/6 193/2/6 197/2/6
f 197/2/6 193/2/6 198/2/6
f 194/1/6 195/1/6 199/1/6
f 199/1/6 195/1/6 200/1/6
f 185/2/6 191/2/6 201/2/6
f 201/2/6 191/2/6 202/2/6
f 203/1/6 204/1/6 205/1/6
f 205/1/6 204/1/6 206/1/6
f 206/1/6 207/1/6 210/1/6
f 210/1/6 207/1/6 211/1/6
f 208/2/6 209/2/6 214/2/6
f 214/2/6 209/2/6 215/2/6
f 212/1/6 213/1/6 217/1/6
f 217/1/6 213/1/6 218/1/6
f 216/1/6 217/1/6 220/1/6
f 220/1/6 217/1/6 221/1/6
f 219/1/6 220/1/6 222/1/6
f 222/1/6 220/1/6 223/1/6
f 224/1/6 225/1/6 226/1/6
f 224/1/6 226/1/6 228/1/6
f 226/1/6 227/1/6 228/1/6
f 228/1/6 227/1/6 229/1/6
f 224/1/6 228/1/6 230/1/6
f 230/1/6 228/1/6 231/1/6
